{
  "title": "Margin Call 2011.True.1080p.BluRay.x264 . NVEE",
  "uid": 9680968,
  "size": 2340476083,
  "categoryP": "video",
  "categoryS": "hd___movies",
  "magnet": "?xt=urn:btih:9fa3a8541be8f01ffeaf11fd63432c2bc3a27a08&amp;dn=Margin+Call+2011.True.1080p.BluRay.x264+.+NVEE&amp;tr=udp%3A%2F%2Ftracker.openbittorrent.com%3A80&amp;tr=udp%3A%2F%2Fopen.demonii.com%3A1337&amp;tr=udp%3A%2F%2Ftracker.coppersurfer.tk%3A6969&amp;tr=udp%3A%2F%2Fexodus.desync.com%3A6969",
  "seeders": 78,
  "leechers": 14,
  "uploader": ".NVEE",
  "files": -1,
  "time": 1393667672,
  "description": "FULL_INFOs\n\n\nSource : Blu-ray ~ 1080p\n\nSpoken Language : English\n\nAudio : 6 ~ Channels Only\n\nAll .srt &amp; .idx subs can be turned On/Off\n_____________________________________\n\n\n &lt;a href=&quot;\nhttp://www.imdb.com/title/tt1615147/&quot; rel=&quot;nofollow&quot; target=&quot;_NEW&quot;&gt;\nhttp://www.imdb.com/title/tt1615147/&lt;/a&gt;\n\n\n\n---------------------------------------------------------------------------------\n\n\nGeneral Metadata\n\nComplete name : Margin Call 2011.True.1080p.BluRay.x264 . NVEE.mp4\nFormat : MPEG-4\nFormat profile : Base Media\nCodec ID : isom\nFile size : 2.18 GiB\nDuration : 1h 47mn\nOverall bit rate : 2 899 Kbps\nEncoded date : UTC 2014-02-26 10:31:54\nTagged date : UTC 2014-02-26 10:31:54\n\n\nVideo\n\nID : 1\nFormat : AVC\nFormat/Info : Advanced Video Codec\nFormat profile : &lt;a class=&quot;__cf_email__&quot; href=&quot;/cdn-cgi/l/email-protection&quot; data-cfemail=&quot;5a12333d321a166e746a&quot;&gt;[email&amp;#160;protected]&lt;/a&gt;&lt;script cf-hash='f9e31' type=&quot;text/javascript&quot;&gt;\n/* &lt;![CDATA[ */!function(){try{var t=&quot;currentScript&quot;in document?document.currentScript:function(){for(var t=document.getElementsByTagName(&quot;script&quot;),e=t.length;e--;)if(t[e].getAttribute(&quot;cf-hash&quot;))return t[e]}();if(t&amp;&amp;t.previousSibling){var e,r,n,i,c=t.previousSibling,a=c.getAttribute(&quot;data-cfemail&quot;);if(a){for(e=&quot;&quot;,r=parseInt(a.substr(0,2),16),n=2;a.length-n;n+=2)i=parseInt(a.substr(n,2),16)^r,e+=String.fromCharCode(i);e=document.createTextNode(e),c.parentNode.replaceChild(e,c)}}}catch(u){}}();/* ]]&gt; */&lt;/script&gt;\nFormat settings, CABAC : Yes\nFormat settings, ReFrames : 3 frames\nCodec ID : avc1\nCodec ID/Info : Advanced Video Coding\nDuration : 1h 47mn\nBit rate : 2 462 Kbps\nMaximum bit rate : 16.5 Mbps\nWidth : 1 920 pixels\nHeight : 1 080 pixels\nDisplay aspect ratio : 16:9\nFrame rate mode : Constant\nFrame rate : 23.976 fps\nColor space : YUV\nChroma subsampling : 4:2:0\nBit depth : 8 bits\nScan type : Progressive\nBits/(Pixel*Frame) : 0.050\nStream size : 1.84 GiB (84%)\nWriting library : x264 core 138 r2358 9e941d1\n\n\nAudio\n\nID : 2\nFormat : AC-3\nFormat/Info : Audio Coding 3\nMode extension : CM (complete main)\nFormat settings, Endianness : Big\nCodec ID : ac-3\nDuration : 1h 47mn\nBit rate mode : Constant\nBit rate : 448 Kbps\nChannel(s) : 6 channels\nChannel positions : Front: L C R, Side: L R, LFE\nSampling rate : 48.0 KHz\nBit depth : 16 bits\nCompression mode : Lossy\nStream size : 345 MiB (16%)\nLanguage : English\nEncoded date : UTC 2014-02-26 10:43:06\nTagged date : UTC 2014-02-26 10:43:45\n\n\nSynopsis\n\nJunior risk analyst Seth Bregman (Penn Badgley), his more senior colleague Peter Sullivan (Zachary Quinto), and trading desk head Will Emerson (Paul Bettany) watch as a contracted temporary human resources team, hired by their firm, conducts an unannounced mass layoff right on their trading floor, at the start of an otherwise normal business day. One of the fired employees is Peter and Seth's boss, Eric Dale (Stanley Tucci), head of risk management on the floor. Dale attempts to tell his now former employer that the firm should look into what he has been working on, but the contracted human resources staff have no interest other than his quickly leaving the building. While Dale is being escorted out, he gives Peter a USB memory stick with a project he had been working on, telling him to &quot;be careful&quot; just as he boards the elevator.\nThat night, Sullivan finishes Dale's project and discovers that current volatility in the firm's portfolio of mortgage backed securities will soon exceed the historical volatility levels of the positions. Because of excessive leverage, if the firm's assets decrease by 25% in value, the firm will suffer a loss greater than its market capitalization. He also discovers that, given the normal length of time that the firm holds such securities, this loss must occur. Sullivan alerts Emerson, who calls floor head Sam Rogers (Kevin Spacey).\n\nEnj0y !",
  "parsed": {
    "xt": "urn:btih:9fa3a8541be8f01ffeaf11fd63432c2bc3a27a08",
    "dn": "Margin Call 2011.True.1080p.BluRay.x264 . NVEE",
    "tr": [
      "udp://exodus.desync.com:6969",
      "udp://open.demonii.com:1337",
      "udp://tracker.coppersurfer.tk:6969",
      "udp://tracker.openbittorrent.com:80"
    ],
    "infoHash": "9fa3a8541be8f01ffeaf11fd63432c2bc3a27a08",
    "infoHashBuffer": {
      "type": "Buffer",
      "data": [
        159,
        163,
        168,
        84,
        27,
        232,
        240,
        31,
        254,
        175,
        17,
        253,
        99,
        67,
        44,
        43,
        195,
        162,
        122,
        8
      ]
    },
    "name": "Margin Call 2011.True.1080p.BluRay.x264 . NVEE",
    "announce": [
      "udp://exodus.desync.com:6969",
      "udp://open.demonii.com:1337",
      "udp://tracker.coppersurfer.tk:6969",
      "udp://tracker.openbittorrent.com:80"
    ],
    "urlList": []
  },
  "previous": 25,
  "peers": 22,
  "last_updated": "2016-12-27T08:37:19.969Z"
}